<svg width="45" height="62" viewBox="0 0 45 62" fill="none" xmlns="http://www.w3.org/2000/svg">
<path d="M44.4263 22.6039C44.4263 23.7409 44.3373 24.8584 44.1642 25.9467C44.0011 26.9763 43.121 27.7425 42.0679 27.7425H35.9521C35.4824 27.7425 35.1611 27.2887 35.3094 26.8543C35.7791 25.5172 36.0213 24.0923 36.0213 22.6039C36.0213 14.6592 28.9859 8.30059 20.7441 9.28635C14.48 10.033 9.49632 15.0789 8.89314 21.2814C8.67066 23.5799 8.64099 25.4147 9.86218 27.7376L14.5887 36.0336L14.8854 36.5363C15.2809 37.2146 14.7865 38.0637 13.9905 38.0637H7.3407C6.55459 38.0637 5.82287 37.6489 5.43228 36.9754L3.67219 33.9596C3.6623 33.9401 3.64747 33.9157 3.63758 33.8962C3.62769 33.8864 3.62275 33.8718 3.61286 33.8571C1.49679 30.4216 0.320101 26.3663 0.433815 22.0329C0.735405 10.3844 10.5296 0.936677 22.3312 0.887878C34.5084 0.839078 44.4263 10.5991 44.4263 22.6039Z" fill="#30E3CA"/>
<path d="M37.7513 36.5459C38.6017 36.5459 39.1307 37.4536 38.7055 38.1758L26.0585 59.8137C25.307 61.0972 23.9227 61.8877 22.4197 61.8877C20.9167 61.8877 19.5323 61.0972 18.7808 59.8137L12.0865 48.3506C11.7009 47.6869 12.1854 46.8622 12.9567 46.8622H20.0317C20.5755 46.8622 21.0798 47.1501 21.3567 47.6137L22.4246 49.4389L25.5443 44.1001L29.5935 37.1754C29.821 36.785 30.2412 36.5459 30.6961 36.5459H37.7513Z" fill="#30E3CA"/>
<path d="M22.4247 29.5625C25.8597 29.5625 28.6444 26.814 28.6444 23.4235C28.6444 20.033 25.8597 17.2844 22.4247 17.2844C18.9897 17.2844 16.2051 20.033 16.2051 23.4235C16.2051 26.814 18.9897 29.5625 22.4247 29.5625Z" fill="#30E3CA"/>
</svg>
