<svg width="44" height="44" viewBox="0 0 44 44" fill="none" xmlns="http://www.w3.org/2000/svg">
<path d="M30.0489 0.492188H13.951C6.54331 0.492188 0.536133 6.49937 0.536133 13.9071V30.0049C0.536133 37.4126 6.54331 43.4198 13.951 43.4198H30.0489C37.4566 43.4198 43.4637 37.4126 43.4637 30.0049V13.9071C43.4637 6.49937 37.4566 0.492188 30.0489 0.492188ZM39.4393 30.0049C39.4393 35.1831 35.227 39.3953 30.0489 39.3953H13.951C8.77287 39.3953 4.5606 35.1831 4.5606 30.0049V13.9071C4.5606 8.72892 8.77287 4.51665 13.951 4.51665H30.0489C35.227 4.51665 39.4393 8.72892 39.4393 13.9071V30.0049Z" fill="white"/>
<path d="M21.9995 11.2241C16.0728 11.2241 11.2676 16.0293 11.2676 21.956C11.2676 27.8827 16.0728 32.6879 21.9995 32.6879C27.9262 32.6879 32.7314 27.8827 32.7314 21.956C32.7314 16.0293 27.9262 11.2241 21.9995 11.2241ZM21.9995 28.6635C18.3023 28.6635 15.292 25.6532 15.292 21.956C15.292 18.2562 18.3023 15.2486 21.9995 15.2486C25.6966 15.2486 28.7069 18.2562 28.7069 21.956C28.7069 25.6532 25.6966 28.6635 21.9995 28.6635Z" fill="white"/>
<path d="M33.5365 11.8493C34.3262 11.8493 34.9665 11.2091 34.9665 10.4193C34.9665 9.6295 34.3262 8.98926 33.5365 8.98926C32.7467 8.98926 32.1064 9.6295 32.1064 10.4193C32.1064 11.2091 32.7467 11.8493 33.5365 11.8493Z" fill="white"/>
</svg>
