<svg width="27" height="27" viewBox="0 0 27 27" fill="none" xmlns="http://www.w3.org/2000/svg">
<path d="M18.0065 0.132324H8.28132C3.80611 0.132324 0.177002 3.76144 0.177002 8.23664V17.9618C0.177002 22.437 3.80611 26.0661 8.28132 26.0661H18.0065C22.4817 26.0661 26.1108 22.437 26.1108 17.9618V8.23664C26.1108 3.76144 22.4817 0.132324 18.0065 0.132324ZM23.6795 17.9618C23.6795 21.0901 21.1348 23.6348 18.0065 23.6348H8.28132C5.15305 23.6348 2.6083 21.0901 2.6083 17.9618V8.23664C2.6083 5.10837 5.15305 2.56362 8.28132 2.56362H18.0065C21.1348 2.56362 23.6795 5.10837 23.6795 8.23664V17.9618Z" fill="#30E3CA"/>
<path d="M13.1439 6.61572C9.56337 6.61572 6.6604 9.51869 6.6604 13.0992C6.6604 16.6797 9.56337 19.5826 13.1439 19.5826C16.7243 19.5826 19.6273 16.6797 19.6273 13.0992C19.6273 9.51869 16.7243 6.61572 13.1439 6.61572ZM13.1439 17.1513C10.9103 17.1513 9.09169 15.3327 9.09169 13.0992C9.09169 10.864 10.9103 9.04702 13.1439 9.04702C15.3774 9.04702 17.196 10.864 17.196 13.0992C17.196 15.3327 15.3774 17.1513 13.1439 17.1513Z" fill="#30E3CA"/>
<path d="M20.1137 6.99346C20.5908 6.99346 20.9776 6.60667 20.9776 6.12954C20.9776 5.65241 20.5908 5.26562 20.1137 5.26562C19.6365 5.26562 19.2498 5.65241 19.2498 6.12954C19.2498 6.60667 19.6365 6.99346 20.1137 6.99346Z" fill="#30E3CA"/>
</svg>
