<svg width="375" height="667" viewBox="0 0 375 667" fill="none" xmlns="http://www.w3.org/2000/svg">
<rect width="375" height="667" fill="white"/>
<path fill-rule="evenodd" clip-rule="evenodd" d="M187.426 116.545C255.739 116.545 319.796 134.77 375 166.622V667H0V166.536C55.1702 134.737 119.174 116.545 187.426 116.545ZM167.158 555.176C165.401 553.419 165.401 550.57 167.158 548.812L184.23 531.741L184.244 531.727C186.001 529.969 188.85 529.969 190.607 531.726L190.608 531.727L190.622 531.741L207.693 548.812C209.451 550.57 209.451 553.419 207.693 555.176C205.936 556.934 203.087 556.934 201.329 555.176L187.426 541.273L173.522 555.176C171.765 556.934 168.916 556.934 167.158 555.176ZM170.656 573.368C170.622 573.323 170.503 573.238 170.299 573.113C170.095 572.988 169.84 572.858 169.534 572.722C169.228 572.575 168.894 572.456 168.531 572.365C168.168 572.263 167.806 572.212 167.443 572.212C166.446 572.212 165.947 572.546 165.947 573.215C165.947 573.623 166.162 573.912 166.593 574.082C167.035 574.252 167.664 574.456 168.48 574.694C169.251 574.909 169.914 575.159 170.469 575.442C171.036 575.714 171.472 576.082 171.778 576.547C172.084 577 172.237 577.601 172.237 578.349C172.237 579.029 172.112 579.607 171.863 580.083C171.614 580.548 171.274 580.927 170.843 581.222C170.412 581.505 169.925 581.715 169.381 581.851C168.848 581.976 168.293 582.038 167.715 582.038C166.82 582.038 165.913 581.908 164.995 581.647C164.077 581.375 163.267 581.007 162.564 580.542L163.788 578.111C163.833 578.168 163.981 578.275 164.23 578.434C164.479 578.581 164.791 578.74 165.165 578.91C165.539 579.08 165.947 579.227 166.389 579.352C166.842 579.465 167.301 579.522 167.766 579.522C168.752 579.522 169.245 579.222 169.245 578.621C169.245 578.315 169.115 578.077 168.854 577.907C168.605 577.726 168.259 577.573 167.817 577.448L167.523 577.358C167.157 577.245 166.757 577.122 166.321 576.989C165.21 576.649 164.389 576.235 163.856 575.748C163.335 575.261 163.074 574.564 163.074 573.657C163.074 572.807 163.272 572.093 163.669 571.515C164.077 570.926 164.621 570.484 165.301 570.189C165.981 569.883 166.723 569.73 167.528 569.73C168.378 569.73 169.183 569.877 169.942 570.172C170.701 570.455 171.347 570.75 171.88 571.056L170.656 573.368ZM184.369 572.977H186.953L183.264 581.902H181.02L179.66 578.264L178.3 581.902H176.056L172.367 572.977H174.934L177.331 579.335L178.181 576.853L176.583 572.977H178.81L179.66 575.663L180.51 572.977H182.72L181.139 576.853L181.989 579.335L184.369 572.977ZM187.813 571.957V569.492H190.533V571.957H187.813ZM187.813 581.902V572.977H190.533V581.902H187.813ZM198.039 582.072C197.37 582.072 196.781 581.93 196.271 581.647C195.772 581.352 195.387 580.956 195.115 580.457V585.523H192.395V572.977H194.758V574.422C195.087 573.912 195.5 573.515 195.999 573.232C196.498 572.949 197.081 572.807 197.75 572.807C198.543 572.807 199.252 573.017 199.875 573.436C200.51 573.844 201.003 574.394 201.354 575.085C201.717 575.776 201.898 576.553 201.898 577.414C201.898 578.298 201.734 579.091 201.405 579.794C201.076 580.497 200.617 581.052 200.028 581.46C199.45 581.868 198.787 582.072 198.039 582.072ZM197.121 579.777C197.506 579.777 197.852 579.669 198.158 579.454C198.464 579.227 198.702 578.938 198.872 578.587C199.042 578.224 199.127 577.828 199.127 577.397C199.127 576.74 198.923 576.196 198.515 575.765C198.118 575.334 197.608 575.119 196.985 575.119C196.611 575.119 196.248 575.232 195.897 575.459C195.557 575.674 195.296 575.969 195.115 576.343V578.179C195.296 578.632 195.568 579.012 195.931 579.318C196.305 579.624 196.702 579.777 197.121 579.777ZM207.536 582.072C206.527 582.072 205.666 581.862 204.952 581.443C204.238 581.024 203.688 580.468 203.303 579.777C202.929 579.086 202.742 578.338 202.742 577.533C202.742 576.672 202.929 575.884 203.303 575.17C203.677 574.456 204.221 573.884 204.935 573.453C205.649 573.022 206.516 572.807 207.536 572.807C208.545 572.807 209.406 573.022 210.12 573.453C210.834 573.884 211.372 574.45 211.735 575.153C212.109 575.856 212.296 576.609 212.296 577.414C212.296 577.743 212.273 578.032 212.228 578.281H205.632C205.677 578.882 205.893 579.341 206.278 579.658C206.675 579.964 207.122 580.117 207.621 580.117C208.018 580.117 208.397 580.021 208.76 579.828C209.123 579.635 209.372 579.375 209.508 579.046L211.82 579.692C211.469 580.395 210.919 580.967 210.171 581.409C209.434 581.851 208.556 582.072 207.536 582.072ZM205.564 576.615H209.44C209.383 576.048 209.174 575.601 208.811 575.272C208.46 574.932 208.023 574.762 207.502 574.762C206.981 574.762 206.539 574.932 206.176 575.272C205.825 575.612 205.621 576.06 205.564 576.615ZM177.51 598.689V592.977H180.23V598.094C180.23 599.216 180.643 599.777 181.471 599.777C181.833 599.777 182.185 599.681 182.525 599.488C182.865 599.284 183.165 598.95 183.426 598.485V592.977H186.146V598.876C186.146 599.148 186.185 599.341 186.265 599.454C186.355 599.567 186.508 599.63 186.724 599.641V601.902C186.463 601.947 186.242 601.981 186.061 602.004C185.956 602.017 185.856 602.026 185.763 602.032C185.695 602.036 185.63 602.038 185.568 602.038C184.593 602.038 184.038 601.658 183.902 600.899L183.851 600.355C183.443 600.944 182.933 601.381 182.321 601.664C181.72 601.936 181.046 602.072 180.298 602.072C179.391 602.072 178.7 601.783 178.224 601.205C177.748 600.627 177.51 599.788 177.51 598.689ZM193.897 602.072C193.228 602.072 192.639 601.93 192.129 601.647C191.63 601.352 191.245 600.956 190.973 600.457V605.523H188.253V592.977H190.616V594.422C190.945 593.912 191.358 593.515 191.857 593.232C192.356 592.949 192.939 592.807 193.608 592.807C194.401 592.807 195.11 593.017 195.733 593.436C196.368 593.844 196.861 594.394 197.212 595.085C197.575 595.776 197.756 596.553 197.756 597.414C197.756 598.298 197.592 599.091 197.263 599.794C196.934 600.497 196.475 601.052 195.886 601.46C195.308 601.868 194.645 602.072 193.897 602.072ZM192.979 599.777C193.364 599.777 193.71 599.669 194.016 599.454C194.322 599.227 194.56 598.938 194.73 598.587C194.9 598.224 194.985 597.828 194.985 597.397C194.985 596.74 194.781 596.196 194.373 595.765C193.976 595.334 193.466 595.119 192.843 595.119C192.469 595.119 192.106 595.232 191.755 595.459C191.415 595.674 191.154 595.969 190.973 596.343V598.179C191.154 598.632 191.426 599.012 191.789 599.318C192.163 599.624 192.56 599.777 192.979 599.777Z" fill="url(#paint0_linear)"/>
<defs>
<linearGradient id="paint0_linear" x1="-389.648" y1="-61.1116" x2="563.296" y2="-243.388" gradientUnits="userSpaceOnUse">
<stop stop-color="#30E3CA"/>
<stop offset="1" stop-color="#81FFE1"/>
</linearGradient>
</defs>
</svg>
