<svg width="124" height="41" viewBox="0 0 124 41" fill="none" xmlns="http://www.w3.org/2000/svg">
<path d="M123.516 7.44575C123.516 7.7892 123.489 8.12675 123.436 8.45546C123.387 8.76648 123.12 8.99791 122.8 8.99791H120.943C120.8 8.99791 120.703 8.86082 120.748 8.72963C120.89 8.32575 120.964 7.89533 120.964 7.44575C120.964 5.04602 118.827 3.12535 116.325 3.4231C114.423 3.64863 112.909 5.17278 112.726 7.04628C112.659 7.74055 112.65 8.29479 113.02 8.99643L114.456 11.5023L114.546 11.6541C114.666 11.859 114.516 12.1155 114.274 12.1155H112.255C112.016 12.1155 111.794 11.9902 111.675 11.7868L111.141 10.8758C111.138 10.8699 111.133 10.8626 111.13 10.8567C111.127 10.8537 111.126 10.8493 111.123 10.8449C110.48 9.80715 110.123 8.58223 110.158 7.27329C110.249 3.75476 113.223 0.901026 116.807 0.886286C120.504 0.871545 123.516 3.81962 123.516 7.44575Z" fill="#30E3CA"/>
<path d="M121.489 11.6572C121.747 11.6572 121.908 11.9314 121.779 12.1496L117.939 18.6854C117.711 19.0731 117.29 19.3119 116.834 19.3119C116.377 19.3119 115.957 19.0731 115.729 18.6854L113.696 15.2229C113.579 15.0225 113.726 14.7733 113.96 14.7733H116.109C116.274 14.7733 116.427 14.8603 116.511 15.0003L116.835 15.5516L117.783 13.939L119.012 11.8474C119.081 11.7295 119.209 11.6572 119.347 11.6572H121.489Z" fill="#30E3CA"/>
<path d="M116.835 9.54754C117.878 9.54754 118.724 8.71733 118.724 7.69321C118.724 6.66908 117.878 5.83887 116.835 5.83887C115.792 5.83887 114.947 6.66908 114.947 7.69321C114.947 8.71733 115.792 9.54754 116.835 9.54754Z" fill="#30E3CA"/>
<path d="M7.62391 20.5712V25.9217H14.8449V29.7062H7.62391V37.9277H2.69391V16.8012H16.2949V20.5712H7.62391ZM26.6191 28.6042C26.6191 28.2466 26.5708 27.8986 26.4741 27.5602C26.3871 27.2219 26.2373 26.9222 26.0246 26.6612C25.8216 26.3906 25.551 26.1731 25.2126 26.0087C24.8743 25.8444 24.4635 25.7622 23.9801 25.7622C23.1295 25.7622 22.4625 26.0087 21.9791 26.5017C21.4958 26.9851 21.1768 27.6859 21.0221 28.6042H26.6191ZM20.9641 31.2142C21.1091 32.4709 21.491 33.3844 22.1096 33.9547C22.7283 34.5154 23.5258 34.7957 24.5021 34.7957C25.0241 34.7957 25.4736 34.7329 25.8506 34.6072C26.2276 34.4816 26.5611 34.3414 26.8511 34.1867C27.1508 34.0321 27.4215 33.8919 27.6631 33.7662C27.9145 33.6406 28.1755 33.5777 28.4461 33.5777C28.8038 33.5777 29.0745 33.7082 29.2581 33.9692L30.5631 35.5787C30.0991 36.1104 29.5965 36.5454 29.0551 36.8837C28.5235 37.2124 27.9725 37.4734 27.4021 37.6667C26.8415 37.8504 26.276 37.9761 25.7056 38.0437C25.145 38.1211 24.6085 38.1597 24.0961 38.1597C23.0425 38.1597 22.0516 37.9906 21.1236 37.6522C20.2053 37.3042 19.3981 36.7919 18.7021 36.1152C18.0158 35.4386 17.4696 34.5976 17.0636 33.5922C16.6673 32.5869 16.4691 31.4172 16.4691 30.0832C16.4691 29.0779 16.6383 28.1257 16.9766 27.2267C17.3246 26.3277 17.8176 25.5399 18.4556 24.8632C19.1033 24.1866 19.8815 23.6501 20.7901 23.2537C21.7085 22.8574 22.7428 22.6592 23.8931 22.6592C24.8888 22.6592 25.7975 22.8139 26.6191 23.1232C27.4505 23.4326 28.161 23.8821 28.7506 24.4717C29.35 25.0614 29.814 25.7864 30.1426 26.6467C30.481 27.4974 30.6501 28.4641 30.6501 29.5467C30.6501 29.8851 30.6356 30.1606 30.6066 30.3732C30.5776 30.5859 30.5245 30.7551 30.4471 30.8807C30.3698 31.0064 30.2635 31.0934 30.1281 31.1417C30.0025 31.1901 29.8381 31.2142 29.6351 31.2142H20.9641ZM42.252 28.6042C42.252 28.2466 42.2036 27.8986 42.107 27.5602C42.02 27.2219 41.8701 26.9222 41.6575 26.6612C41.4545 26.3906 41.1838 26.1731 40.8455 26.0087C40.5071 25.8444 40.0963 25.7622 39.613 25.7622C38.7623 25.7622 38.0953 26.0087 37.612 26.5017C37.1286 26.9851 36.8096 27.6859 36.655 28.6042H42.252ZM36.597 31.2142C36.742 32.4709 37.1238 33.3844 37.7425 33.9547C38.3611 34.5154 39.1586 34.7957 40.135 34.7957C40.657 34.7957 41.1065 34.7329 41.4835 34.6072C41.8605 34.4816 42.194 34.3414 42.484 34.1867C42.7836 34.0321 43.0543 33.8919 43.296 33.7662C43.5473 33.6406 43.8083 33.5777 44.079 33.5777C44.4366 33.5777 44.7073 33.7082 44.891 33.9692L46.196 35.5787C45.732 36.1104 45.2293 36.5454 44.688 36.8837C44.1563 37.2124 43.6053 37.4734 43.035 37.6667C42.4743 37.8504 41.9088 37.9761 41.3385 38.0437C40.7778 38.1211 40.2413 38.1597 39.729 38.1597C38.6753 38.1597 37.6845 37.9906 36.7565 37.6522C35.8381 37.3042 35.031 36.7919 34.335 36.1152C33.6486 35.4386 33.1025 34.5976 32.6965 33.5922C32.3001 32.5869 32.102 31.4172 32.102 30.0832C32.102 29.0779 32.2711 28.1257 32.6095 27.2267C32.9575 26.3277 33.4505 25.5399 34.0885 24.8632C34.7361 24.1866 35.5143 23.6501 36.423 23.2537C37.3413 22.8574 38.3756 22.6592 39.526 22.6592C40.5216 22.6592 41.4303 22.8139 42.252 23.1232C43.0833 23.4326 43.7938 23.8821 44.3835 24.4717C44.9828 25.0614 45.4468 25.7864 45.7755 26.6467C46.1138 27.4974 46.283 28.4641 46.283 29.5467C46.283 29.8851 46.2685 30.1606 46.2395 30.3732C46.2105 30.5859 46.1573 30.7551 46.08 30.8807C46.0026 31.0064 45.8963 31.0934 45.761 31.1417C45.6353 31.1901 45.471 31.2142 45.268 31.2142H36.597ZM53.0273 16.2212V37.9277H48.5323V16.2212H53.0273ZM68.26 21.0932C68.115 21.3252 67.9603 21.4992 67.796 21.6152C67.6413 21.7312 67.4383 21.7892 67.187 21.7892C66.9646 21.7892 66.723 21.7216 66.462 21.5862C66.2106 21.4412 65.9206 21.2817 65.592 21.1077C65.273 20.9337 64.9056 20.7791 64.49 20.6437C64.0743 20.4987 63.6006 20.4262 63.069 20.4262C62.1506 20.4262 61.4643 20.6244 61.01 21.0207C60.5653 21.4074 60.343 21.9342 60.343 22.6012C60.343 23.0266 60.4783 23.3794 60.749 23.6597C61.0196 23.9401 61.3725 24.1817 61.8075 24.3847C62.2521 24.5877 62.7548 24.7762 63.3155 24.9502C63.8858 25.1146 64.4658 25.3031 65.0555 25.5157C65.6451 25.7187 66.2203 25.9604 66.781 26.2407C67.3513 26.5211 67.854 26.8787 68.289 27.3137C68.7336 27.7487 69.0913 28.2804 69.362 28.9087C69.6326 29.5274 69.768 30.2766 69.768 31.1562C69.768 32.1326 69.5988 33.0461 69.2605 33.8967C68.9221 34.7474 68.4291 35.4917 67.7815 36.1297C67.1435 36.7581 66.3508 37.2559 65.4035 37.6232C64.4658 37.9809 63.3976 38.1597 62.199 38.1597C61.5416 38.1597 60.8698 38.0921 60.1835 37.9567C59.5068 37.8214 58.8495 37.6329 58.2115 37.3912C57.5735 37.1399 56.9741 36.8451 56.4135 36.5067C55.8528 36.1684 55.3646 35.7914 54.949 35.3757L56.399 33.0847C56.515 32.9204 56.6648 32.7851 56.8485 32.6787C57.0418 32.5627 57.2496 32.5047 57.472 32.5047C57.762 32.5047 58.052 32.5966 58.342 32.7802C58.6416 32.9639 58.9751 33.1669 59.3425 33.3892C59.7195 33.6116 60.1496 33.8146 60.633 33.9982C61.1163 34.1819 61.6866 34.2737 62.344 34.2737C63.2333 34.2737 63.9245 34.0804 64.4175 33.6937C64.9105 33.2974 65.157 32.6739 65.157 31.8232C65.157 31.3302 65.0216 30.9291 64.751 30.6197C64.4803 30.3104 64.1226 30.0542 63.678 29.8512C63.243 29.6482 62.7451 29.4694 62.1845 29.3147C61.6238 29.1601 61.0486 28.9909 60.459 28.8072C59.8693 28.6139 59.2941 28.3819 58.7335 28.1112C58.1728 27.8309 57.6701 27.4684 57.2255 27.0237C56.7905 26.5694 56.4376 26.0087 56.167 25.3417C55.8963 24.6651 55.761 23.8337 55.761 22.8477C55.761 22.0551 55.9205 21.2817 56.2395 20.5277C56.5585 19.7737 57.0273 19.1019 57.646 18.5122C58.2646 17.9226 59.0235 17.4537 59.9225 17.1057C60.8215 16.7481 61.851 16.5692 63.011 16.5692C63.6586 16.5692 64.287 16.6224 64.896 16.7287C65.5146 16.8254 66.0995 16.9752 66.6505 17.1782C67.2015 17.3716 67.7138 17.6084 68.1875 17.8887C68.6708 18.1594 69.101 18.4687 69.478 18.8167L68.26 21.0932ZM79.6823 31.8087C78.7833 31.8474 78.0438 31.9247 77.4638 32.0407C76.8838 32.1567 76.4247 32.3017 76.0863 32.4757C75.748 32.6497 75.5112 32.8479 75.3758 33.0702C75.2502 33.2926 75.1873 33.5342 75.1873 33.7952C75.1873 34.3076 75.3275 34.6701 75.6078 34.8827C75.8882 35.0857 76.299 35.1872 76.8403 35.1872C77.4203 35.1872 77.9278 35.0857 78.3628 34.8827C78.7978 34.6797 79.2377 34.3511 79.6823 33.8967V31.8087ZM71.5913 24.9792C72.5 24.1769 73.5053 23.5824 74.6073 23.1957C75.719 22.7994 76.908 22.6012 78.1743 22.6012C79.083 22.6012 79.8998 22.7511 80.6248 23.0507C81.3595 23.3407 81.9782 23.7516 82.4808 24.2832C82.9932 24.8052 83.3847 25.4287 83.6553 26.1537C83.926 26.8787 84.0613 27.6714 84.0613 28.5317V37.9277H82.0023C81.577 37.9277 81.2532 37.8697 81.0308 37.7537C80.8182 37.6377 80.6393 37.3961 80.4943 37.0287L80.1753 36.2022C79.7983 36.5212 79.4358 36.8016 79.0878 37.0432C78.7398 37.2849 78.3773 37.4927 78.0003 37.6667C77.633 37.8311 77.2367 37.9519 76.8113 38.0292C76.3957 38.1162 75.9317 38.1597 75.4193 38.1597C74.733 38.1597 74.1095 38.0727 73.5488 37.8987C72.9882 37.7151 72.5097 37.4492 72.1133 37.1012C71.7267 36.7532 71.427 36.3231 71.2143 35.8107C71.0017 35.2887 70.8953 34.6894 70.8953 34.0127C70.8953 33.4714 71.0307 32.9252 71.3013 32.3742C71.572 31.8136 72.0408 31.3061 72.7078 30.8517C73.3748 30.3877 74.2738 30.0011 75.4048 29.6917C76.5358 29.3824 77.9617 29.2084 79.6823 29.1697V28.5317C79.6823 27.6521 79.4987 27.0189 79.1313 26.6322C78.7737 26.2359 78.2613 26.0377 77.5943 26.0377C77.0627 26.0377 76.6277 26.0957 76.2893 26.2117C75.951 26.3277 75.6465 26.4582 75.3758 26.6032C75.1148 26.7482 74.8587 26.8787 74.6073 26.9947C74.356 27.1107 74.0563 27.1687 73.7083 27.1687C73.399 27.1687 73.138 27.0914 72.9253 26.9367C72.7127 26.7821 72.5387 26.5984 72.4033 26.3857L71.5913 24.9792ZM87.7396 37.9277V25.9797L86.7536 25.7767C86.4153 25.6994 86.1398 25.5786 85.9271 25.4142C85.7241 25.2499 85.6226 25.0082 85.6226 24.6892V22.9202H87.7396V22.0647C87.7396 21.2044 87.8749 20.4262 88.1456 19.7302C88.4259 19.0342 88.8223 18.4397 89.3346 17.9467C89.8566 17.4537 90.4898 17.0719 91.2341 16.8012C91.9784 16.5306 92.8243 16.3952 93.7716 16.3952C94.1389 16.3952 94.4773 16.4194 94.7866 16.4677C95.0959 16.5064 95.4198 16.5741 95.7581 16.6707L95.6711 18.8602C95.6614 19.0149 95.6228 19.1454 95.5551 19.2517C95.4874 19.3484 95.3956 19.4306 95.2796 19.4982C95.1733 19.5562 95.0573 19.5997 94.9316 19.6287C94.8059 19.6577 94.6803 19.6722 94.5546 19.6722C94.1583 19.6722 93.8054 19.7109 93.4961 19.7882C93.1868 19.8656 92.9258 20.0057 92.7131 20.2087C92.5101 20.4021 92.3554 20.6631 92.2491 20.9917C92.1428 21.3107 92.0896 21.7167 92.0896 22.2097V22.9202H95.6131V25.9942H92.2346V37.9277H87.7396ZM106.284 28.6042C106.284 28.2466 106.236 27.8986 106.139 27.5602C106.052 27.2219 105.902 26.9222 105.69 26.6612C105.487 26.3906 105.216 26.1731 104.878 26.0087C104.539 25.8444 104.129 25.7622 103.645 25.7622C102.795 25.7622 102.128 26.0087 101.644 26.5017C101.161 26.9851 100.842 27.6859 100.687 28.6042H106.284ZM100.629 31.2142C100.774 32.4709 101.156 33.3844 101.775 33.9547C102.393 34.5154 103.191 34.7957 104.167 34.7957C104.689 34.7957 105.139 34.7329 105.516 34.6072C105.893 34.4816 106.226 34.3414 106.516 34.1867C106.816 34.0321 107.087 33.8919 107.328 33.7662C107.58 33.6406 107.841 33.5777 108.111 33.5777C108.469 33.5777 108.74 33.7082 108.923 33.9692L110.228 35.5787C109.764 36.1104 109.262 36.5454 108.72 36.8837C108.189 37.2124 107.638 37.4734 107.067 37.6667C106.507 37.8504 105.941 37.9761 105.371 38.0437C104.81 38.1211 104.274 38.1597 103.761 38.1597C102.708 38.1597 101.717 37.9906 100.789 37.6522C99.8703 37.3042 99.0632 36.7919 98.3672 36.1152C97.6808 35.4386 97.1347 34.5976 96.7287 33.5922C96.3323 32.5869 96.1342 31.4172 96.1342 30.0832C96.1342 29.0779 96.3033 28.1257 96.6417 27.2267C96.9897 26.3277 97.4827 25.5399 98.1207 24.8632C98.7683 24.1866 99.5465 23.6501 100.455 23.2537C101.374 22.8574 102.408 22.6592 103.558 22.6592C104.554 22.6592 105.463 22.8139 106.284 23.1232C107.116 23.4326 107.826 23.8821 108.416 24.4717C109.015 25.0614 109.479 25.7864 109.808 26.6467C110.146 27.4974 110.315 28.4641 110.315 29.5467C110.315 29.8851 110.301 30.1606 110.272 30.3732C110.243 30.5859 110.19 30.7551 110.112 30.8807C110.035 31.0064 109.929 31.0934 109.793 31.1417C109.668 31.1901 109.503 31.2142 109.3 31.2142H100.629Z" fill="#30E3CA"/>
</svg>
