<svg width="640" height="226" viewBox="0 0 640 226" fill="none" xmlns="http://www.w3.org/2000/svg">
<path d="M34.341 100.279V130.354H73.491V148.054H34.341V191.479H11.691V82.6542H80.991V100.279H34.341ZM135.967 143.704C135.967 141.554 135.667 139.504 135.067 137.554C134.517 135.604 133.617 133.879 132.367 132.379C131.117 130.879 129.542 129.704 127.642 128.854C125.742 127.954 123.467 127.504 120.817 127.504C115.867 127.504 111.992 128.904 109.192 131.704C106.392 134.504 104.567 138.504 103.717 143.704H135.967ZM103.417 156.004C104.067 163.254 106.117 168.554 109.567 171.904C113.067 175.254 117.617 176.929 123.217 176.929C126.067 176.929 128.517 176.604 130.567 175.954C132.667 175.254 134.492 174.504 136.042 173.704C137.642 172.854 139.067 172.104 140.317 171.454C141.617 170.754 142.892 170.404 144.142 170.404C145.742 170.404 146.992 171.004 147.892 172.204L153.892 179.704C151.692 182.254 149.267 184.379 146.617 186.079C143.967 187.729 141.217 189.054 138.367 190.054C135.517 191.004 132.642 191.654 129.742 192.004C126.842 192.404 124.042 192.604 121.342 192.604C115.942 192.604 110.892 191.729 106.192 189.979C101.542 188.179 97.4672 185.554 93.9672 182.104C90.5172 178.604 87.7922 174.279 85.7922 169.129C83.7922 163.979 82.7922 158.004 82.7922 151.204C82.7922 145.954 83.6422 141.004 85.3422 136.354C87.0922 131.704 89.5922 127.654 92.8422 124.204C96.0922 120.754 100.042 118.029 104.692 116.029C109.342 113.979 114.592 112.954 120.442 112.954C125.392 112.954 129.942 113.754 134.092 115.354C138.292 116.904 141.892 119.179 144.892 122.179C147.942 125.179 150.292 128.879 151.942 133.279C153.642 137.629 154.492 142.604 154.492 148.204C154.492 149.754 154.417 151.029 154.267 152.029C154.117 153.029 153.867 153.829 153.517 154.429C153.167 155.029 152.692 155.454 152.092 155.704C151.492 155.904 150.717 156.004 149.767 156.004H103.417ZM216.387 143.704C216.387 141.554 216.087 139.504 215.487 137.554C214.937 135.604 214.037 133.879 212.787 132.379C211.537 130.879 209.962 129.704 208.062 128.854C206.162 127.954 203.887 127.504 201.237 127.504C196.287 127.504 192.412 128.904 189.612 131.704C186.812 134.504 184.987 138.504 184.137 143.704H216.387ZM183.837 156.004C184.487 163.254 186.537 168.554 189.987 171.904C193.487 175.254 198.037 176.929 203.637 176.929C206.487 176.929 208.937 176.604 210.987 175.954C213.087 175.254 214.912 174.504 216.462 173.704C218.062 172.854 219.487 172.104 220.737 171.454C222.037 170.754 223.312 170.404 224.562 170.404C226.162 170.404 227.412 171.004 228.312 172.204L234.312 179.704C232.112 182.254 229.687 184.379 227.037 186.079C224.387 187.729 221.637 189.054 218.787 190.054C215.937 191.004 213.062 191.654 210.162 192.004C207.262 192.404 204.462 192.604 201.762 192.604C196.362 192.604 191.312 191.729 186.612 189.979C181.962 188.179 177.887 185.554 174.387 182.104C170.937 178.604 168.212 174.279 166.212 169.129C164.212 163.979 163.212 158.004 163.212 151.204C163.212 145.954 164.062 141.004 165.762 136.354C167.512 131.704 170.012 127.654 173.262 124.204C176.512 120.754 180.462 118.029 185.112 116.029C189.762 113.979 195.012 112.954 200.862 112.954C205.812 112.954 210.362 113.754 214.512 115.354C218.712 116.904 222.312 119.179 225.312 122.179C228.362 125.179 230.712 128.879 232.362 133.279C234.062 137.629 234.912 142.604 234.912 148.204C234.912 149.754 234.837 151.029 234.687 152.029C234.537 153.029 234.287 153.829 233.937 154.429C233.587 155.029 233.112 155.454 232.512 155.704C231.912 155.904 231.137 156.004 230.187 156.004H183.837ZM268.607 79.6542V191.479H247.907V79.6542H268.607ZM347.35 103.504C346.65 104.654 345.925 105.504 345.175 106.054C344.475 106.554 343.55 106.804 342.4 106.804C341.3 106.804 340.1 106.429 338.8 105.679C337.55 104.879 336.075 104.029 334.375 103.129C332.675 102.229 330.725 101.404 328.525 100.654C326.325 99.8542 323.75 99.4542 320.8 99.4542C315.6 99.4542 311.7 100.629 309.1 102.979C306.5 105.279 305.2 108.304 305.2 112.054C305.2 114.454 305.9 116.454 307.3 118.054C308.75 119.604 310.625 120.954 312.925 122.104C315.275 123.254 317.925 124.279 320.875 125.179C323.825 126.079 326.85 127.079 329.95 128.179C333.05 129.229 336.075 130.479 339.025 131.929C341.975 133.379 344.6 135.204 346.9 137.404C349.25 139.604 351.125 142.304 352.525 145.504C353.975 148.654 354.7 152.504 354.7 157.054C354.7 162.004 353.825 166.654 352.075 171.004C350.375 175.304 347.9 179.079 344.65 182.329C341.4 185.529 337.375 188.054 332.575 189.904C327.825 191.754 322.425 192.679 316.375 192.679C312.925 192.679 309.475 192.329 306.025 191.629C302.625 190.929 299.325 189.954 296.125 188.704C292.975 187.454 290 185.954 287.2 184.204C284.4 182.454 281.95 180.504 279.85 178.354L286.45 167.704C287 166.904 287.725 166.254 288.625 165.754C289.525 165.204 290.475 164.929 291.475 164.929C292.825 164.929 294.25 165.429 295.75 166.429C297.25 167.429 298.975 168.529 300.925 169.729C302.875 170.929 305.125 172.029 307.675 173.029C310.275 174.029 313.375 174.529 316.975 174.529C322.225 174.529 326.275 173.329 329.125 170.929C332.025 168.529 333.475 164.954 333.475 160.204C333.475 157.454 332.75 155.229 331.3 153.529C329.9 151.829 328.05 150.404 325.75 149.254C323.45 148.104 320.825 147.129 317.875 146.329C314.925 145.479 311.9 144.554 308.8 143.554C305.7 142.554 302.675 141.354 299.725 139.954C296.775 138.554 294.15 136.704 291.85 134.404C289.55 132.104 287.675 129.254 286.225 125.854C284.825 122.454 284.125 118.229 284.125 113.179C284.125 109.129 284.925 105.204 286.525 101.404C288.125 97.6042 290.475 94.2292 293.575 91.2792C296.675 88.3292 300.475 85.9542 304.975 84.1542C309.525 82.3542 314.725 81.4542 320.575 81.4542C327.125 81.4542 333.175 82.4792 338.725 84.5292C344.325 86.5292 349.05 89.3292 352.9 92.9292L347.35 103.504ZM407.567 159.154C402.517 159.404 398.317 159.854 394.967 160.504C391.617 161.104 388.942 161.904 386.942 162.904C384.992 163.904 383.592 165.054 382.742 166.354C381.942 167.604 381.542 168.979 381.542 170.479C381.542 173.479 382.367 175.604 384.017 176.854C385.717 178.104 388.067 178.729 391.067 178.729C394.517 178.729 397.492 178.129 399.992 176.929C402.542 175.679 405.067 173.754 407.567 171.154V159.154ZM365.417 124.879C369.967 120.779 374.992 117.729 380.492 115.729C385.992 113.679 391.942 112.654 398.342 112.654C402.942 112.654 407.042 113.404 410.642 114.904C414.292 116.404 417.367 118.504 419.867 121.204C422.417 123.854 424.367 127.029 425.717 130.729C427.067 134.429 427.742 138.479 427.742 142.879V191.479H418.292C416.342 191.479 414.842 191.204 413.792 190.654C412.792 190.104 411.967 188.954 411.317 187.204L409.667 182.254C407.717 183.954 405.817 185.454 403.967 186.754C402.167 188.054 400.292 189.154 398.342 190.054C396.392 190.904 394.292 191.554 392.042 192.004C389.842 192.454 387.367 192.679 384.617 192.679C381.217 192.679 378.117 192.229 375.317 191.329C372.517 190.429 370.092 189.104 368.042 187.354C366.042 185.554 364.492 183.329 363.392 180.679C362.292 178.029 361.742 174.979 361.742 171.529C361.742 168.679 362.467 165.829 363.917 162.979C365.367 160.129 367.842 157.554 371.342 155.254C374.892 152.904 379.592 150.979 385.442 149.479C391.342 147.929 398.717 147.054 407.567 146.854V142.879C407.567 138.029 406.542 134.479 404.492 132.229C402.442 129.929 399.492 128.779 395.642 128.779C392.792 128.779 390.417 129.129 388.517 129.829C386.617 130.479 384.942 131.204 383.492 132.004C382.092 132.754 380.767 133.479 379.517 134.179C378.267 134.829 376.817 135.154 375.167 135.154C373.717 135.154 372.492 134.804 371.492 134.104C370.542 133.354 369.742 132.479 369.092 131.479L365.417 124.879ZM448.06 191.479V129.004L442.06 127.954C440.51 127.654 439.235 127.104 438.235 126.304C437.285 125.504 436.81 124.354 436.81 122.854V114.604H448.06V109.504C448.06 105.104 448.735 101.129 450.085 97.5792C451.485 93.9792 453.46 90.9542 456.01 88.5042C458.56 86.0042 461.685 84.0792 465.385 82.7292C469.085 81.3792 473.26 80.7042 477.91 80.7042C479.71 80.7042 481.41 80.8292 483.01 81.0792C484.66 81.2792 486.31 81.6042 487.96 82.0542L487.51 92.2542C487.41 93.8042 486.735 94.8292 485.485 95.3292C484.285 95.7792 482.935 96.0042 481.435 96.0042C479.335 96.0042 477.435 96.2292 475.735 96.6792C474.085 97.1292 472.685 97.9042 471.535 99.0042C470.385 100.054 469.51 101.504 468.91 103.354C468.31 105.154 468.01 107.404 468.01 110.104V114.604H487.21V129.004H468.685V191.479H448.06ZM544.073 143.704C544.073 141.554 543.773 139.504 543.173 137.554C542.623 135.604 541.723 133.879 540.473 132.379C539.223 130.879 537.648 129.704 535.748 128.854C533.848 127.954 531.573 127.504 528.923 127.504C523.973 127.504 520.098 128.904 517.298 131.704C514.498 134.504 512.673 138.504 511.823 143.704H544.073ZM511.523 156.004C512.173 163.254 514.223 168.554 517.673 171.904C521.173 175.254 525.723 176.929 531.323 176.929C534.173 176.929 536.623 176.604 538.673 175.954C540.773 175.254 542.598 174.504 544.148 173.704C545.748 172.854 547.173 172.104 548.423 171.454C549.723 170.754 550.998 170.404 552.248 170.404C553.848 170.404 555.098 171.004 555.998 172.204L561.998 179.704C559.798 182.254 557.373 184.379 554.723 186.079C552.073 187.729 549.323 189.054 546.473 190.054C543.623 191.004 540.748 191.654 537.848 192.004C534.948 192.404 532.148 192.604 529.448 192.604C524.048 192.604 518.998 191.729 514.298 189.979C509.648 188.179 505.573 185.554 502.073 182.104C498.623 178.604 495.898 174.279 493.898 169.129C491.898 163.979 490.898 158.004 490.898 151.204C490.898 145.954 491.748 141.004 493.448 136.354C495.198 131.704 497.698 127.654 500.948 124.204C504.198 120.754 508.148 118.029 512.798 116.029C517.448 113.979 522.698 112.954 528.548 112.954C533.498 112.954 538.048 113.754 542.198 115.354C546.398 116.904 549.998 119.179 552.998 122.179C556.048 125.179 558.398 128.879 560.048 133.279C561.748 137.629 562.598 142.604 562.598 148.204C562.598 149.754 562.523 151.029 562.373 152.029C562.223 153.029 561.973 153.829 561.623 154.429C561.273 155.029 560.798 155.454 560.198 155.704C559.598 155.904 558.823 156.004 557.873 156.004H511.523Z" fill="white"/>
<path d="M640 39.8723C640 41.96 639.836 44.0118 639.518 46.0099C639.217 47.9005 637.597 49.3072 635.659 49.3072H624.4C623.535 49.3072 622.944 48.4739 623.217 47.6765C624.081 45.2214 624.527 42.6051 624.527 39.8723C624.527 25.2854 611.576 13.6106 596.403 15.4205C584.872 16.7914 575.697 26.056 574.587 37.4441C574.177 41.6643 574.123 45.0333 576.371 49.2982L585.072 64.5302L585.618 65.4531C586.346 66.6985 585.436 68.2576 583.97 68.2576H571.729C570.282 68.2576 568.935 67.496 568.216 66.2595L564.975 60.7222C564.957 60.6864 564.93 60.6416 564.912 60.6057C564.894 60.5878 564.884 60.5609 564.866 60.534C560.971 54.2262 558.805 46.7805 559.014 38.824C559.569 17.4365 577.599 0.0899345 599.325 0.000334542C621.742 -0.0892654 640 17.8307 640 39.8723Z" fill="white"/>
<path d="M627.712 65.4707C629.277 65.4707 630.251 67.1373 629.469 68.4633L606.187 108.192C604.803 110.548 602.255 112 599.488 112C596.721 112 594.173 110.548 592.789 108.192L580.466 87.1449C579.756 85.9264 580.648 84.4121 582.067 84.4121H595.092C596.093 84.4121 597.021 84.9408 597.531 85.792L599.497 89.143L605.24 79.3408L612.694 66.6265C613.113 65.9097 613.887 65.4707 614.724 65.4707H627.712Z" fill="white"/>
<path d="M599.497 52.649C605.82 52.649 610.947 47.6026 610.947 41.3774C610.947 35.1522 605.82 30.1057 599.497 30.1057C593.173 30.1057 588.047 35.1522 588.047 41.3774C588.047 47.6026 593.173 52.649 599.497 52.649Z" fill="white"/>
</svg>
