<svg width="75" height="74" viewBox="0 0 75 74" fill="none" xmlns="http://www.w3.org/2000/svg">
<path fill-rule="evenodd" clip-rule="evenodd" d="M37.4688 6.1665C20.2187 6.1665 6.25 19.9798 6.25 36.9998C6.25 54.0198 20.2187 67.8332 37.4688 67.8332C54.75 67.8332 68.75 54.0198 68.75 36.9998C68.75 19.9798 54.75 6.1665 37.4688 6.1665ZM31.25 29.2915C31.25 31.8458 29.1513 33.9165 26.5625 33.9165C23.9737 33.9165 21.875 31.8458 21.875 29.2915C21.875 26.7372 23.9737 24.6665 26.5625 24.6665C29.1513 24.6665 31.25 26.7372 31.25 29.2915ZM48.4375 33.9165C51.0263 33.9165 53.125 31.8458 53.125 29.2915C53.125 26.7372 51.0263 24.6665 48.4375 24.6665C45.8487 24.6665 43.75 26.7372 43.75 29.2915C43.75 31.8458 45.8487 33.9165 48.4375 33.9165ZM28.125 47.7915V43.1665H46.875V47.7915H28.125ZM12.5 36.9998C12.5 50.6282 23.6875 61.6665 37.5 61.6665C51.3125 61.6665 62.5 50.6282 62.5 36.9998C62.5 23.3715 51.3125 12.3332 37.5 12.3332C23.6875 12.3332 12.5 23.3715 12.5 36.9998Z" fill="white"/>
<path d="M28.125 43.1665V42.6665H27.625V43.1665H28.125ZM28.125 47.7915H27.625V48.2915H28.125V47.7915ZM46.875 43.1665H47.375V42.6665H46.875V43.1665ZM46.875 47.7915V48.2915H47.375V47.7915H46.875ZM6.75 36.9998C6.75 20.2616 20.4892 6.6665 37.4688 6.6665V5.6665C19.9483 5.6665 5.75 19.698 5.75 36.9998H6.75ZM37.4688 67.3332C20.4892 67.3332 6.75 53.738 6.75 36.9998H5.75C5.75 54.3016 19.9483 68.3332 37.4688 68.3332V67.3332ZM68.25 36.9998C68.25 53.7371 54.4805 67.3332 37.4688 67.3332V68.3332C55.0195 68.3332 69.25 54.3026 69.25 36.9998H68.25ZM37.4688 6.6665C54.4805 6.6665 68.25 20.2626 68.25 36.9998H69.25C69.25 19.6971 55.0195 5.6665 37.4688 5.6665V6.6665ZM26.5625 34.4165C29.4211 34.4165 31.75 32.1283 31.75 29.2915H30.75C30.75 31.5634 28.8815 33.4165 26.5625 33.4165V34.4165ZM21.375 29.2915C21.375 32.1283 23.7039 34.4165 26.5625 34.4165V33.4165C24.2435 33.4165 22.375 31.5634 22.375 29.2915H21.375ZM26.5625 24.1665C23.7039 24.1665 21.375 26.4547 21.375 29.2915H22.375C22.375 27.0196 24.2435 25.1665 26.5625 25.1665V24.1665ZM31.75 29.2915C31.75 26.4547 29.4211 24.1665 26.5625 24.1665V25.1665C28.8815 25.1665 30.75 27.0196 30.75 29.2915H31.75ZM52.625 29.2915C52.625 31.5634 50.7565 33.4165 48.4375 33.4165V34.4165C51.2961 34.4165 53.625 32.1283 53.625 29.2915H52.625ZM48.4375 25.1665C50.7565 25.1665 52.625 27.0196 52.625 29.2915H53.625C53.625 26.4547 51.2961 24.1665 48.4375 24.1665V25.1665ZM44.25 29.2915C44.25 27.0196 46.1185 25.1665 48.4375 25.1665V24.1665C45.5789 24.1665 43.25 26.4547 43.25 29.2915H44.25ZM48.4375 33.4165C46.1185 33.4165 44.25 31.5634 44.25 29.2915H43.25C43.25 32.1283 45.5789 34.4165 48.4375 34.4165V33.4165ZM27.625 43.1665V47.7915H28.625V43.1665H27.625ZM46.875 42.6665H28.125V43.6665H46.875V42.6665ZM47.375 47.7915V43.1665H46.375V47.7915H47.375ZM28.125 48.2915H46.875V47.2915H28.125V48.2915ZM37.5 61.1665C23.9573 61.1665 13 50.3457 13 36.9998H12C12 50.9106 23.4177 62.1665 37.5 62.1665V61.1665ZM62 36.9998C62 50.3457 51.0427 61.1665 37.5 61.1665V62.1665C51.5823 62.1665 63 50.9106 63 36.9998H62ZM37.5 12.8332C51.0427 12.8332 62 23.654 62 36.9998H63C63 23.0891 51.5823 11.8332 37.5 11.8332V12.8332ZM13 36.9998C13 23.654 23.9573 12.8332 37.5 12.8332V11.8332C23.4177 11.8332 12 23.0891 12 36.9998H13Z" fill="white"/>
</svg>
