<svg width="75" height="75" viewBox="0 0 75 75" fill="none" xmlns="http://www.w3.org/2000/svg">
<path fill-rule="evenodd" clip-rule="evenodd" d="M37.4688 6.25C20.2187 6.25 6.25 20.25 6.25 37.5C6.25 54.75 20.2187 68.75 37.4688 68.75C54.75 68.75 68.75 54.75 68.75 37.5C68.75 20.25 54.75 6.25 37.4688 6.25ZM37.5 62.5C23.6875 62.5 12.5 51.3125 12.5 37.5C12.5 23.6875 23.6875 12.5 37.5 12.5C51.3125 12.5 62.5 23.6875 62.5 37.5C62.5 51.3125 51.3125 62.5 37.5 62.5ZM53.125 29.6875C53.125 32.2812 51.0312 34.375 48.4375 34.375C45.8438 34.375 43.75 32.2812 43.75 29.6875C43.75 27.0938 45.8438 25 48.4375 25C51.0312 25 53.125 27.0938 53.125 29.6875ZM26.5625 34.375C29.1562 34.375 31.25 32.2812 31.25 29.6875C31.25 27.0938 29.1562 25 26.5625 25C23.9688 25 21.875 27.0938 21.875 29.6875C21.875 32.2812 23.9688 34.375 26.5625 34.375ZM53.468 43.75C50.968 50.125 44.7805 54.6875 37.4993 54.6875C30.218 54.6875 24.0305 50.125 21.5305 43.75H53.468Z" fill="white"/>
<path d="M53.468 43.75L53.9335 43.9325L54.2012 43.25H53.468V43.75ZM21.5305 43.75V43.25H20.7974L21.065 43.9325L21.5305 43.75ZM6.75 37.5C6.75 20.5255 20.4955 6.75 37.4688 6.75V5.75C19.942 5.75 5.75 19.9745 5.75 37.5H6.75ZM37.4688 68.25C20.4955 68.25 6.75 54.4745 6.75 37.5H5.75C5.75 55.0255 19.942 69.25 37.4688 69.25V68.25ZM68.25 37.5C68.25 54.4735 54.4742 68.25 37.4688 68.25V69.25C55.0258 69.25 69.25 55.0265 69.25 37.5H68.25ZM37.4688 6.75C54.4742 6.75 68.25 20.5265 68.25 37.5H69.25C69.25 19.9735 55.0258 5.75 37.4688 5.75V6.75ZM12 37.5C12 51.5886 23.4114 63 37.5 63V62C23.9636 62 13 51.0364 13 37.5H12ZM37.5 12C23.4114 12 12 23.4114 12 37.5H13C13 23.9636 23.9636 13 37.5 13V12ZM63 37.5C63 23.4114 51.5886 12 37.5 12V13C51.0364 13 62 23.9636 62 37.5H63ZM37.5 63C51.5886 63 63 51.5886 63 37.5H62C62 51.0364 51.0364 62 37.5 62V63ZM48.4375 34.875C51.3074 34.875 53.625 32.5574 53.625 29.6875H52.625C52.625 32.0051 50.7551 33.875 48.4375 33.875V34.875ZM43.25 29.6875C43.25 32.5574 45.5676 34.875 48.4375 34.875V33.875C46.1199 33.875 44.25 32.0051 44.25 29.6875H43.25ZM48.4375 24.5C45.5676 24.5 43.25 26.8176 43.25 29.6875H44.25C44.25 27.3699 46.1199 25.5 48.4375 25.5V24.5ZM53.625 29.6875C53.625 26.8176 51.3074 24.5 48.4375 24.5V25.5C50.7551 25.5 52.625 27.3699 52.625 29.6875H53.625ZM30.75 29.6875C30.75 32.0051 28.8801 33.875 26.5625 33.875V34.875C29.4324 34.875 31.75 32.5574 31.75 29.6875H30.75ZM26.5625 25.5C28.8801 25.5 30.75 27.3699 30.75 29.6875H31.75C31.75 26.8176 29.4324 24.5 26.5625 24.5V25.5ZM22.375 29.6875C22.375 27.3699 24.2449 25.5 26.5625 25.5V24.5C23.6926 24.5 21.375 26.8176 21.375 29.6875H22.375ZM26.5625 33.875C24.2449 33.875 22.375 32.0051 22.375 29.6875H21.375C21.375 32.5574 23.6926 34.875 26.5625 34.875V33.875ZM37.4993 55.1875C44.9957 55.1875 51.3619 50.49 53.9335 43.9325L53.0025 43.5675C50.5741 49.76 44.5653 54.1875 37.4993 54.1875V55.1875ZM21.065 43.9325C23.6366 50.49 30.0028 55.1875 37.4993 55.1875V54.1875C30.4332 54.1875 24.4244 49.76 21.996 43.5675L21.065 43.9325ZM53.468 43.25H21.5305V44.25H53.468V43.25Z" fill="white"/>
</svg>
