<svg width="44" height="36" viewBox="0 0 44 36" fill="none" xmlns="http://www.w3.org/2000/svg">
<path d="M43.4636 5.00213C41.8672 5.70239 40.1662 6.16654 38.3928 6.39191C40.2172 5.30263 41.6097 3.59089 42.2643 1.52769C40.5633 2.54185 38.6852 3.2582 36.6837 3.65797C35.0686 1.93819 32.7666 0.873047 30.2554 0.873047C25.3831 0.873047 21.4606 4.82774 21.4606 9.67586C21.4606 10.3734 21.5196 11.0442 21.6645 11.6827C14.348 11.3259 7.87405 7.81925 3.52496 2.47746C2.76568 3.7948 2.32031 5.30263 2.32031 6.92582C2.32031 9.97367 3.88984 12.6754 6.22939 14.2396C4.81547 14.2128 3.42837 13.8023 2.25323 13.1557C2.25323 13.1825 2.25323 13.2174 2.25323 13.2523C2.25323 17.5289 5.30377 21.0812 9.30407 21.8995C8.58772 22.0953 7.80697 22.1892 6.99672 22.1892C6.43329 22.1892 5.86451 22.157 5.3306 22.039C6.47086 25.5241 9.70652 28.0864 13.5539 28.1696C10.5597 30.5118 6.75793 31.923 2.64226 31.923C1.92054 31.923 1.22834 31.8908 0.536133 31.8023C4.43448 34.3162 9.05455 35.7516 14.0368 35.7516C30.2312 35.7516 39.085 22.3368 39.085 10.7088C39.085 10.3198 39.0716 9.94416 39.0528 9.57123C40.7994 8.3317 42.267 6.78362 43.4636 5.00213Z" fill="white"/>
</svg>
