<svg width="27" height="22" viewBox="0 0 27 22" fill="none" xmlns="http://www.w3.org/2000/svg">
<path d="M26.0781 2.70349C25.1137 3.12654 24.086 3.40695 23.0147 3.5431C24.1168 2.88503 24.9581 1.85092 25.3536 0.604475C24.3259 1.21716 23.1913 1.64993 21.9822 1.89144C21.0064 0.852467 19.6157 0.208984 18.0986 0.208984C15.1551 0.208984 12.7854 2.59814 12.7854 5.52703C12.7854 5.94846 12.821 6.35367 12.9086 6.73944C8.48848 6.52386 4.57734 4.4054 1.94993 1.17826C1.49122 1.9741 1.22216 2.88503 1.22216 3.86565C1.22216 5.70695 2.17036 7.33916 3.58376 8.28412C2.72956 8.26791 1.89158 8.01992 1.18164 7.62929C1.18164 7.6455 1.18164 7.66657 1.18164 7.68764C1.18164 10.2713 3.02456 12.4173 5.44126 12.9117C5.00849 13.03 4.53682 13.0867 4.04732 13.0867C3.70694 13.0867 3.36332 13.0673 3.04077 12.996C3.72963 15.1015 5.68439 16.6494 8.00871 16.6996C6.19983 18.1146 3.90307 18.9672 1.41666 18.9672C0.980652 18.9672 0.562469 18.9478 0.144287 18.8943C2.4994 20.413 5.29052 21.2802 8.30046 21.2802C18.084 21.2802 23.4328 13.1759 23.4328 6.15106C23.4328 5.91604 23.4247 5.68912 23.4134 5.46382C24.4686 4.71498 25.3552 3.77974 26.0781 2.70349Z" fill="#30E3CA"/>
</svg>
